<svg xmlns="http://www.w3.org/2000/svg" width="500" height="500" viewBox="0 0 500 500">
  <style>
    .error-bg { fill: #f8f9fa; }
    .error-detail { fill: #dee2e6; }
    .error-main { fill: #0d6efd; }
    .error-accent { fill: #6ea8fe; }
  </style>
  <rect class="error-bg" width="500" height="500" rx="20"/>
  <path class="error-detail" d="M141.5 155h-20a8.5 8.5 0 110-17h20a8.5 8.5 0 110 17zM385.5 155h-20a8.5 8.5 0 110-17h20a8.5 8.5 0 110 17z"/>
  <path class="error-main" d="M263.5 350c-68.5 0-124-55.5-124-124s55.5-124 124-124 124 55.5 124 124-55.5 124-124 124zm0-231c-59.1 0-107 47.9-107 107s47.9 107 107 107 107-47.9 107-107-47.9-107-107-107z"/>
  <path class="error-accent" d="M263.5 350c-68.5 0-124-55.5-124-124s55.5-124 124-124 124 55.5 124 124-55.5 124-124 124zm0-231c-59.1 0-107 47.9-107 107s47.9 107 107 107 107-47.9 107-107-47.9-107-107-107z"/>
  <path class="error-main" d="M212.3 270.7c-2.1 0-4.2-.8-5.8-2.4l-40.4-40.4c-3.2-3.2-3.2-8.4 0-11.6l40.4-40.4c3.2-3.2 8.4-3.2 11.6 0s3.2 8.4 0 11.6L183.5 222l34.6 34.6c3.2 3.2 3.2 8.4 0 11.6-1.6 1.6-3.7 2.5-5.8 2.5z"/>
  <path class="error-main" d="M314.7 270.7c-2.1 0-4.2-.8-5.8-2.4-3.2-3.2-3.2-8.4 0-11.6l34.6-34.6-34.6-34.6c-3.2-3.2-3.2-8.4 0-11.6s8.4-3.2 11.6 0l40.4 40.4c3.2 3.2 3.2 8.4 0 11.6l-40.4 40.4c-1.6 1.6-3.7 2.4-5.8 2.4z"/>
  <path class="error-accent" d="M251.5 282.7c-1.1 0-2.3-.2-3.4-.7-4.1-1.9-5.9-6.8-4-10.9l24-52c1.9-4.1 6.8-5.9 10.9-4s5.9 6.8 4 10.9l-24 52c-1.4 3-4.3 4.7-7.5 4.7z"/>
</svg>
